<?xml version="1.0" standalone="no"?>
<!DOCTYPE svg PUBLIC "-//W3C//DTD SVG 20010904//EN"
 "http://www.w3.org/TR/2001/REC-SVG-20010904/DTD/svg10.dtd">
<svg version="1.0" xmlns="http://www.w3.org/2000/svg"
 width="1600.000000pt" height="1600.000000pt" viewBox="0 0 1600.000000 1600.000000"
 preserveAspectRatio="xMidYMid meet">
<metadata>
Created by potrace 1.14, written by Peter Selinger 2001-2017
</metadata>
<g transform="translate(0.000000,1600.000000) scale(0.100000,-0.100000)"
fill="#000000" stroke="none">
<path d="M2585 11700 c3 -5 1 -10 -5 -10 -6 0 -9 -4 -6 -8 15 -25 -16 -31
-162 -33 -162 -1 -190 -9 -179 -50 3 -11 1 -21 -4 -24 -4 -3 -6 -12 -3 -19 6
-16 -48 -27 -68 -15 -7 4 -16 5 -21 2 -5 -3 -48 -7 -96 -9 -135 -6 -129 -3
-145 -85 -5 -24 -10 -26 -63 -28 -31 -1 -65 -7 -75 -12 -13 -7 -18 -6 -18 3
-1 8 -6 6 -14 -5 -9 -12 -15 -14 -18 -6 -6 17 -38 -17 -39 -42 -1 -10 -2 -24
-3 -31 -1 -13 -46 -25 -83 -22 -24 1 -35 -19 -37 -68 -1 -15 -4 -30 -8 -34 -7
-7 -53 -12 -139 -15 -26 -1 -52 -5 -58 -9 -12 -7 -22 -40 -24 -77 -1 -18 -7
-23 -31 -24 -17 -1 -35 -2 -41 -4 -5 -1 -16 -3 -23 -3 -7 -1 -11 -6 -7 -11 3
-5 1 -12 -3 -15 -5 -3 -8 -19 -7 -36 2 -37 1 -37 -55 -44 -53 -7 -60 -13 -62
-60 -2 -44 -10 -52 -60 -55 -38 -2 -51 -17 -53 -60 -2 -49 -6 -54 -48 -57 -69
-3 -67 -2 -68 -41 -1 -51 -10 -69 -36 -70 -13 0 -34 -1 -47 -2 -16 -1 -26 -9
-30 -24 -3 -12 -18 -36 -34 -52 -25 -26 -28 -37 -26 -86 2 -63 27 -121 49
-113 10 4 13 0 10 -19 -4 -18 1 -27 18 -35 l22 -11 -25 -1 c-116 -7 -130 -15
-130 -74 l0 -41 -93 0 c-99 1 -139 -9 -136 -34 4 -48 -2 -92 -13 -90 -25 4
-69 -14 -79 -32 -5 -11 -13 -56 -16 -102 -3 -45 -7 -83 -8 -85 -1 -1 -12 -5
-24 -7 -73 -14 -80 -31 -88 -199 -3 -72 -6 -132 -8 -134 -1 -1 -21 -4 -43 -5
-23 -1 -44 -5 -47 -9 -11 -11 -13 -40 -14 -185 l-1 -143 -30 0 -30 0 0 -969 0
-968 27 1 28 1 5 -113 c6 -126 9 -131 71 -125 l39 4 2 -98 c1 -111 1 -105 15
-155 13 -42 25 -56 68 -78 26 -14 30 -22 33 -65 2 -28 7 -54 12 -59 5 -5 28
-9 50 -8 46 2 52 -7 54 -69 0 -22 5 -40 11 -40 5 -1 30 -2 54 -3 46 -2 55 -10
65 -58 7 -30 29 -40 91 -43 55 -3 83 12 97 52 17 46 24 41 22 -17 -1 -58 -1
-58 -34 -62 -65 -9 -79 -46 -76 -200 3 -129 20 -170 82 -207 19 -11 34 -24 34
-29 0 -5 12 -9 28 -9 80 -1 77 1 78 -47 0 -59 13 -72 68 -71 49 0 47 2 50 -62
1 -40 8 -47 55 -49 49 -2 63 -10 60 -37 -5 -66 -1 -75 34 -73 66 4 80 -5 82
-57 1 -56 6 -61 53 -63 20 -1 42 -3 47 -3 6 -1 10 -21 11 -46 1 -25 4 -49 8
-52 4 -4 31 -10 59 -13 29 -3 52 -9 53 -15 3 -40 20 -65 52 -81 33 -16 54 -19
143 -23 22 -1 25 -6 28 -43 1 -24 7 -47 12 -53 9 -9 54 -12 180 -14 36 -1 36
-1 38 -48 1 -26 7 -51 14 -55 11 -7 155 -13 200 -8 15 1 18 -5 17 -27 -6 -86
-5 -86 172 -91 84 -2 156 -7 160 -11 4 -3 9 -21 11 -39 2 -18 9 -38 15 -44 8
-8 104 -12 299 -14 158 -1 290 -4 293 -5 3 -1 10 0 15 1 24 5 155 4 155 -1 0
-4 18 -3 41 1 22 4 56 4 74 0 19 -4 36 -5 39 -2 5 4 53 4 196 2 8 -1 37 1 63
3 27 1 51 -1 53 -5 3 -5 10 -6 15 -2 6 3 145 7 308 9 164 2 307 6 319 9 32 11
44 56 44 172 -1 138 -4 142 -128 150 -49 4 -91 8 -93 9 -1 2 -3 27 -4 54 l0
51 -56 0 -56 0 1 55 c0 30 3 57 5 59 3 3 20 8 39 11 57 10 68 28 69 112 1 32
8 51 31 76 26 30 30 42 30 93 0 51 -4 64 -30 94 -16 19 -30 41 -30 47 0 21
-52 28 -162 25 -51 -2 -61 -15 -63 -77 l0 -30 -458 -1 -458 0 -5 25 c-17 81
-16 81 -269 85 l-180 2 -5 47 c-3 25 -8 48 -10 51 -8 7 -73 15 -144 17 -70 2
-72 3 -80 53 -3 16 -9 33 -14 38 -11 11 -100 24 -159 23 -37 -1 -43 2 -44 19
-3 87 -11 93 -129 92 l-100 -1 -1 35 c-1 19 -1 40 0 46 2 21 -32 39 -73 39
l-41 0 -3 47 c-4 55 -17 66 -74 64 -28 -1 -38 3 -39 14 -3 59 -6 81 -13 87 -4
4 -28 10 -54 13 -43 5 -46 7 -48 35 -1 17 -2 38 -3 47 -1 17 -63 44 -79 34
-17 -10 -31 11 -37 54 -3 24 -8 46 -11 49 -3 3 -53 6 -112 7 -59 1 -108 5
-109 8 -6 14 -1 25 29 67 27 37 33 53 33 103 1 52 -2 62 -32 98 -18 22 -31 44
-28 48 9 15 -17 24 -62 21 -29 -1 -43 2 -44 11 0 7 -2 55 -4 107 -6 173 -15
200 -75 217 l-35 10 -2 104 c-5 216 -13 243 -74 233 -22 -3 -29 1 -35 19 -4
13 -8 274 -8 581 l-1 557 25 1 c14 1 30 1 37 0 19 -3 41 39 48 89 3 25 7 94 8
153 2 106 2 108 27 114 61 14 83 73 84 225 1 47 4 89 7 93 4 3 27 6 53 7 25 0
46 3 47 7 1 3 2 31 3 61 2 52 3 55 29 58 28 3 68 46 74 80 8 39 3 103 -11 137
-15 36 -38 65 -52 65 -10 0 -44 42 -39 49 2 4 75 6 162 4 87 -1 164 1 171 6 7
4 14 27 16 50 2 23 6 44 9 47 3 4 25 7 48 8 46 2 60 20 55 70 -4 32 1 36 54
41 22 2 44 6 48 9 5 3 9 26 11 53 1 26 4 50 7 53 3 2 29 5 57 5 50 0 52 1 51
28 0 15 4 27 9 27 4 0 5 5 2 10 -4 6 -2 9 3 8 5 -2 18 6 28 17 15 16 33 20 92
21 40 1 77 5 82 10 5 5 12 27 16 49 3 22 8 42 10 45 3 2 35 5 72 7 123 4 138
11 140 64 1 23 4 44 6 48 3 4 46 7 97 6 107 -2 129 10 129 70 0 19 3 36 8 36
4 1 70 3 147 5 294 7 295 7 295 70 0 21 6 35 18 39 23 10 792 13 792 3 0 -5 0
-10 0 -13 -1 -12 30 -62 45 -75 18 -15 75 -20 230 -20 170 0 178 3 180 67 1
41 16 50 90 49 30 -1 39 -5 36 -16 -8 -34 -8 -181 0 -186 6 -3 7 -14 4 -25 -4
-10 -3 -19 2 -19 5 0 9 -10 10 -21 2 -27 30 -58 51 -58 30 0 57 -6 63 -14 3
-4 47 -9 97 -10 50 -2 94 -5 97 -9 3 -3 8 -22 10 -43 3 -21 12 -43 20 -49 9
-6 57 -11 110 -11 l95 0 1 -35 c1 -19 2 -43 2 -52 0 -10 7 -18 16 -19 45 -2
84 -8 89 -14 3 -3 7 -24 8 -46 2 -50 12 -61 61 -63 53 -2 60 -9 57 -55 -2 -43
4 -49 66 -57 40 -5 51 -19 46 -55 -5 -31 16 -61 41 -59 10 1 30 2 46 1 25 -1
27 -4 27 -43 0 -24 5 -50 10 -58 10 -16 14 -17 71 -19 34 -1 36 -3 33 -31 -2
-16 1 -41 6 -55 8 -22 15 -25 58 -25 l48 0 1 -45 c1 -25 2 -69 2 -99 1 -66 18
-87 67 -84 18 1 36 -1 39 -4 3 -3 8 -52 10 -108 2 -56 6 -104 9 -107 3 -3 25
-8 51 -10 25 -3 46 -8 46 -12 1 -3 3 -62 5 -131 4 -123 9 -178 16 -186 2 -2
20 -5 41 -8 20 -2 41 -7 46 -10 5 -4 10 -43 10 -89 2 -164 9 -422 13 -439 6
-25 11 -28 52 -32 46 -5 47 -5 52 -58 9 -82 11 -95 18 -106 4 -7 5 -16 2 -21
-8 -12 15 -29 44 -33 14 -2 31 -7 38 -12 7 -4 24 -9 38 -11 14 -1 34 -12 45
-24 11 -11 24 -21 29 -21 9 0 17 -30 25 -99 6 -55 12 -63 37 -55 15 4 18 3 13
-7 -6 -9 -2 -11 13 -7 12 4 22 3 22 0 0 -13 207 -7 223 6 8 7 18 33 22 57 6
44 10 48 50 47 34 -1 56 42 61 121 3 40 6 78 6 85 1 6 4 12 7 13 3 0 33 3 66
5 33 2 71 6 85 8 14 3 31 5 38 5 7 1 12 9 11 19 -1 9 2 26 7 37 13 30 11 462
-2 475 -13 13 -35 18 -76 19 l-28 1 -1 208 c0 114 -4 216 -8 227 -8 21 -10 22
-66 24 -33 1 -34 2 -31 36 1 19 -1 35 -6 35 -4 0 -4 11 1 23 5 13 5 30 1 37
-5 8 -5 21 0 31 5 9 7 19 4 22 -4 4 -9 54 -13 133 -1 16 -8 21 -43 23 -24 1
-46 5 -51 10 -4 4 -9 50 -11 102 -2 52 -4 99 -5 105 0 6 -22 12 -48 13 -26 1
-51 5 -55 9 -4 4 -8 51 -9 105 -3 108 -8 117 -68 117 -16 0 -33 5 -36 10 -4 6
-9 47 -12 92 -6 108 -14 120 -75 119 -23 0 -31 14 -33 61 -3 49 -10 56 -63 61
-23 2 -44 6 -47 9 -3 2 -7 23 -9 47 -5 53 -8 56 -59 58 -23 0 -45 2 -48 2 -4
1 -5 21 -4 46 3 54 -8 65 -69 68 -49 2 -48 0 -49 75 0 17 -5 33 -11 33 -6 1
-28 2 -49 3 -45 2 -56 16 -51 61 4 41 -12 55 -60 57 -42 1 -50 10 -52 56 -2
44 -13 53 -65 58 -23 2 -45 7 -48 9 -2 3 -6 24 -7 46 -3 48 -5 51 -41 54 -59
5 -70 13 -76 57 -6 47 -18 57 -67 59 -55 2 -144 6 -152 8 -3 0 -5 8 -4 17 5
31 -9 89 -22 90 -6 1 -32 2 -57 3 -25 0 -44 4 -44 9 4 23 -2 52 -10 48 -5 -4
-7 2 -4 13 7 27 -9 33 -101 38 -44 3 -86 10 -93 16 -6 7 -14 30 -17 51 -4 22
-9 42 -11 44 -8 9 -285 8 -285 -1 0 -4 -4 -6 -9 -3 -16 10 -28 -40 -30 -123
-1 -47 -4 -88 -7 -92 -2 -4 -1 -9 3 -12 5 -2 1 -2 -7 1 -8 2 -36 7 -62 9 l-48
6 0 104 c0 98 -1 104 -23 112 -12 5 -35 7 -50 6 -15 -2 -27 0 -28 3 -1 7 -3
22 -14 80 -6 31 -7 32 -55 32 -51 0 -56 5 -51 48 2 9 -175 12 -854 12 -568 0
-854 -3 -850 -10z m-894 -333 c-10 -9 -11 -8 -5 6 3 10 9 15 12 12 3 -3 0 -11
-7 -18z m2949 -146 c0 -12 36 -24 70 -25 22 0 26 -5 30 -45 3 -25 3 -77 0
-116 l-5 -69 -67 -1 c-62 0 -66 1 -52 16 12 14 15 40 12 133 -2 64 0 116 5
116 4 0 7 -4 7 -9z m-100 -261 c0 -5 -4 -10 -10 -10 -5 0 -10 5 -10 10 0 6 5
10 10 10 6 0 10 -4 10 -10z m-3446 -678 c3 -5 -1 -9 -9 -9 -8 0 -12 4 -9 9 3
4 7 8 9 8 2 0 6 -4 9 -8z m106 -1 c9 -1 6 -71 -2 -71 -5 0 -8 14 -8 30 0 29
-15 38 -53 31 -5 -1 -6 2 -3 7 4 6 35 8 66 3z m6 -96 c-1 -8 -5 -17 -8 -21 -5
-4 -4 16 1 34 3 9 9 -1 7 -13z m4 -45 c0 -5 -5 -10 -11 -10 -5 0 -7 5 -4 10 3
6 8 10 11 10 2 0 4 -4 4 -10z m0 -35 c0 -8 -4 -15 -8 -15 -5 0 -9 7 -9 15 0 8
4 15 9 15 4 0 8 -7 8 -15z m0 -35 c0 -5 -5 -10 -11 -10 -5 0 -7 5 -4 10 3 6 8
10 11 10 2 0 4 -4 4 -10z m0 -60 c0 -11 -4 -20 -9 -20 -6 0 -9 9 -8 20 1 11 5
20 9 20 4 0 8 -9 8 -20z m0 -40 c0 -5 -5 -10 -11 -10 -5 0 -7 5 -4 10 3 6 8
10 11 10 2 0 4 -4 4 -10z m-355 -3244 c2 -6 6 -26 9 -45 5 -33 18 -49 44 -52
26 -3 30 -4 35 -9 3 -3 -41 -6 -97 -7 l-102 -2 2 57 c0 31 1 60 2 63 3 11 104
7 107 -5z"/>
<path d="M3658 10272 c-37 -2 -48 -7 -49 -20 -1 -9 -2 -29 -3 -44 -2 -36 -10
-42 -58 -45 -22 -1 -45 -6 -51 -12 -6 -6 -10 -336 -11 -913 l-1 -903 -167 0
c-101 0 -164 -3 -161 -9 4 -5 0 -6 -8 0 -20 12 -189 12 -189 -1 0 -6 -3 -7 -8
0 -10 14 -65 17 -56 3 4 -7 3 -8 -5 -4 -22 14 -63 17 -55 5 4 -8 3 -9 -5 -5
-22 14 -63 17 -55 5 4 -8 3 -9 -5 -5 -6 4 -23 10 -38 12 -24 5 -25 3 -12 -13
13 -16 12 -17 -3 -5 -23 18 -72 27 -62 11 5 -8 3 -9 -5 -4 -20 12 -102 14 -94
2 4 -6 1 -7 -7 -2 -17 10 -100 14 -94 4 2 -4 -9 -4 -26 1 -28 8 -34 6 -31 -13
1 -5 -3 -6 -9 -2 -6 3 -8 10 -6 14 3 3 -22 7 -54 7 -38 0 -56 -4 -52 -11 3 -5
-2 -4 -11 4 -15 12 -17 11 -18 -5 0 -18 -1 -18 -9 1 -5 11 -9 14 -9 7 -1 -8
-6 -10 -13 -6 -16 10 -68 12 -94 3 -12 -4 -26 -3 -33 4 -8 8 -11 8 -11 -1 0
-10 -5 -10 -20 -2 -11 6 -20 7 -20 3 0 -4 -46 -8 -103 -7 -56 0 -111 -4 -123
-9 -12 -5 -25 -26 -33 -53 l-13 -44 -49 0 c-54 0 -58 -3 -60 -51 -3 -59 -8
-69 -39 -69 -38 0 -60 -9 -60 -26 0 -8 -3 -14 -7 -14 -5 0 -7 -44 -5 -97 4
-166 4 -164 20 -158 13 5 13 3 1 -12 -12 -15 -12 -16 4 -10 9 3 17 2 17 -4 0
-5 6 -9 13 -8 44 6 57 -10 62 -74 2 -15 6 -31 10 -35 8 -8 2361 -10 2369 -2 3
3 8 26 11 50 3 24 7 45 9 47 1 2 20 5 41 6 61 5 63 14 61 232 -1 180 -3 196
-21 209 -11 8 -34 13 -52 11 -19 -1 -33 3 -34 9 0 6 -1 439 -2 963 -1 523 -6
955 -10 960 -5 4 -13 9 -18 9 -5 1 -11 3 -14 4 -3 1 -20 3 -37 4 -31 1 -33 3
-36 43 -2 23 -9 47 -17 53 -14 11 -169 18 -267 12z m-1488 -1948 c0 -8 -19
-13 -24 -6 -3 5 1 9 9 9 8 0 15 -2 15 -3z"/>
<path d="M15501 8441 c-6 -4 -12 -29 -13 -54 0 -26 -1 -47 -2 -48 0 0 -30 -3
-66 -6 -63 -5 -117 -24 -133 -47 -21 -32 -29 -105 -29 -261 1 -93 4 -179 6
-190 2 -11 5 -25 5 -31 1 -14 45 -34 76 -34 14 0 26 -3 26 -7 1 -5 3 -24 5
-43 8 -65 9 -65 272 -66 130 0 247 2 259 4 25 5 37 32 34 78 -1 29 0 31 29 28
l30 -4 -2 288 -3 287 -27 -1 c-24 0 -28 4 -29 28 -1 15 -3 33 -4 38 -1 6 -3
16 -4 23 0 8 -7 14 -13 15 -51 6 -408 8 -417 3z"/>
<path d="M4557 8103 c-2 -1 -31 -3 -65 -4 -41 -2 -67 -7 -75 -17 -8 -11 -13
-78 -15 -231 -1 -119 -3 -238 -4 -264 0 -26 2 -50 5 -54 4 -3 2 -14 -3 -24 -6
-10 -6 -20 -1 -23 5 -3 5 -21 1 -41 -4 -20 -4 -38 1 -41 5 -3 6 -10 3 -16 -9
-14 -11 -157 -2 -171 3 -6 2 -21 -3 -34 -6 -18 -6 -22 3 -17 7 5 8 3 3 -6 -11
-18 -12 -209 -1 -203 5 4 6 1 2 -6 -11 -16 -13 -122 -4 -128 5 -2 5 -9 1 -16
-9 -15 -10 -57 -2 -63 4 -2 4 -18 -1 -34 -5 -19 -5 -30 1 -30 6 0 7 -5 3 -11
-9 -14 -9 -163 0 -177 3 -6 0 -13 -6 -15 -10 -4 -10 -6 0 -6 7 -1 10 -6 6 -12
-9 -14 -8 -124 1 -138 3 -6 3 -11 -2 -11 -8 0 -8 -113 0 -134 3 -7 2 -19 -3
-26 -4 -7 -4 -26 0 -41 5 -16 5 -31 0 -34 -5 -3 -6 -15 -1 -28 5 -12 5 -32 0
-44 -5 -13 -5 -23 -1 -23 4 0 8 -212 8 -470 1 -259 5 -474 9 -478 8 -8 597 -9
635 0 22 4 26 11 30 60 3 31 5 232 5 447 0 260 3 391 10 392 5 0 109 2 230 4
304 4 325 9 325 77 0 15 3 29 8 29 4 1 70 3 147 4 77 2 152 8 167 13 23 10 27
16 24 46 -4 52 5 60 76 62 35 2 76 5 93 8 33 6 66 42 58 63 -9 22 14 39 54 41
45 3 68 23 69 60 2 56 3 57 41 59 61 3 68 20 72 181 1 41 2 42 37 42 19 0 44
5 55 11 19 10 20 21 17 496 l-3 485 -23 18 c-13 11 -33 17 -47 14 -29 -5 -40
10 -37 51 4 46 -17 68 -68 69 l-43 1 -2 47 c0 26 -4 50 -7 54 -6 5 -50 13 -95
16 -8 1 -14 16 -14 35 -1 18 -2 37 -3 42 -3 26 -30 34 -125 35 -83 0 -101 3
-102 16 -1 8 -2 30 -2 47 -1 24 -7 35 -22 40 -17 6 -1413 12 -1418 6z m1094
-584 c5 -8 9 -25 9 -39 1 -48 12 -54 112 -57 51 -2 98 -5 104 -7 8 -3 12 -84
11 -281 l0 -277 -24 -9 c-14 -5 -28 -7 -33 -4 -17 11 -51 -31 -53 -65 -2 -34
-3 -35 -56 -45 -42 -8 -55 -15 -57 -30 -10 -69 -16 -85 -32 -86 -110 -3 -542
-3 -543 1 -1 3 -3 208 -4 457 l-1 452 35 3 c20 2 146 2 280 2 193 -1 245 -5
252 -15z"/>
<path d="M14637 7992 c-41 -3 -49 -7 -58 -29 -5 -14 -9 -30 -8 -37 5 -38 -1
-44 -43 -45 -82 -1 -152 -11 -165 -24 -7 -7 -14 -26 -16 -43 -5 -41 -15 -56
-35 -52 -36 5 -72 -12 -74 -35 0 -12 -2 -26 -3 -32 -2 -5 -3 -69 -4 -141 l-1
-132 -307 -1 c-401 -2 -367 2 -374 -50 -7 -51 -19 -60 -79 -62 -74 -1 -142 -7
-147 -13 -3 -2 -6 -26 -7 -53 l-1 -48 -47 -3 c-54 -3 -65 -14 -69 -62 -4 -47
-14 -58 -50 -56 -37 3 -51 -14 -55 -62 -2 -38 -6 -676 -5 -767 2 -67 11 -79
63 -80 l43 0 3 -50 c1 -27 6 -53 11 -58 4 -4 30 -9 57 -10 l49 -2 0 -54 0 -54
-47 -2 c-59 -1 -71 -12 -71 -69 0 -41 -2 -45 -26 -45 -44 0 -63 -7 -73 -25 -5
-9 -10 -90 -10 -179 0 -251 -2 -242 46 -251 38 -7 46 -16 14 -16 -32 0 -44
-15 -53 -62 -4 -21 -10 -39 -14 -39 -3 -1 -17 -2 -31 -3 -47 -4 -70 -17 -71
-39 -4 -100 -10 -182 -15 -186 -6 -7 -13 -8 -49 -10 -14 0 -29 -10 -36 -22
-15 -29 -19 -265 -5 -284 6 -8 27 -17 46 -20 19 -3 38 -9 42 -13 4 -4 9 -48
12 -97 4 -105 10 -125 40 -126 75 -3 71 -1 72 -47 1 -24 6 -48 11 -53 6 -6 58
-12 116 -12 l106 -2 -2 -25 -2 -25 656 -3 655 -2 0 27 -1 28 79 2 c43 1 84 7
89 12 6 6 11 30 11 53 l1 43 53 3 c56 3 53 -1 56 71 1 38 4 40 59 42 35 2 47
6 48 18 1 9 3 30 4 46 2 17 3 36 4 43 1 7 17 12 46 12 40 0 47 3 56 27 5 14 8
32 5 40 -3 7 -2 13 2 13 6 0 9 433 3 450 -1 3 -3 27 -5 54 -4 56 -28 85 -72
90 -16 2 -32 4 -35 5 -3 0 -4 19 -3 41 3 64 -9 72 -115 75 -50 1 -94 5 -98 8
-3 4 -6 23 -7 43 -4 68 19 65 -556 68 l-364 1 -12 40 c-7 25 -20 45 -35 52
-23 12 -22 13 16 13 278 6 424 10 440 13 22 4 42 37 48 81 l3 30 102 0 c63 1
105 5 113 13 6 6 11 30 11 52 0 23 2 41 6 42 4 1 42 2 85 4 84 2 127 18 127
46 0 14 14 57 26 77 1 1 11 5 24 7 12 2 28 9 36 16 18 15 37 82 39 140 2 55
10 69 39 69 58 0 73 71 70 327 -1 99 -5 190 -8 201 -5 15 -19 23 -52 28 -24 3
-45 9 -45 13 -1 3 -3 33 -4 66 -2 33 -3 74 -4 90 -2 42 -13 56 -52 61 -53 8
-58 11 -55 41 1 15 -2 38 -7 51 -9 18 -18 22 -59 22 -26 0 -49 3 -49 8 -6 41
-3 105 5 108 6 1 118 4 248 6 320 5 308 -5 310 254 2 160 -9 227 -43 263 -11
12 -26 21 -34 21 -19 0 -26 13 -31 68 -3 26 -12 52 -19 58 -9 6 -67 12 -137
13 -68 2 -163 3 -213 4 -49 1 -112 1 -138 -1z m-406 -1184 c1 -24 1 -46 0 -50
-1 -8 39 -20 78 -23 14 -1 28 -3 31 -3 7 -2 4 -307 -3 -324 -2 -8 -22 -15 -43
-16 -49 -4 -56 -11 -60 -63 -2 -23 -6 -44 -9 -47 -6 -7 -423 -10 -442 -4 -8 3
-13 23 -13 52 0 53 -5 57 -69 62 -18 1 -35 7 -37 13 -9 25 -10 86 -3 91 5 3 6
11 2 19 -5 7 -7 61 -5 118 l3 105 46 0 c53 0 63 10 63 70 l0 42 230 0 230 0 1
-42z m230 -1815 c2 -37 -3 -133 -10 -190 -1 -9 -27 -13 -92 -13 -50 0 -98 -4
-108 -9 -11 -6 -18 -24 -20 -52 -1 -24 -4 -45 -6 -47 -4 -5 -446 -4 -450 0 -2
2 -5 20 -8 42 -3 21 -9 42 -15 48 -10 10 -66 17 -154 17 l-58 1 0 115 0 115
460 0 460 0 1 -27z"/>
<path d="M7250 7423 c-8 -1 -106 -4 -217 -5 -143 -2 -206 -7 -214 -15 -11 -11
-14 -71 -20 -368 0 -5 2 -25 4 -43 2 -18 0 -35 -5 -38 -5 -3 -6 -9 -3 -15 6
-8 9 -85 5 -101 -4 -20 -2 -89 3 -94 4 -4 2 -14 -3 -24 -5 -10 -7 -20 -4 -23
7 -7 11 -87 4 -87 -5 0 -4 -102 0 -125 1 -5 2 -12 1 -15 -6 -15 -5 -130 1
-130 4 0 3 -13 -2 -29 -4 -15 -4 -34 0 -42 5 -7 4 -21 -1 -31 -6 -12 -6 -18 0
-18 6 0 8 -9 3 -22 -4 -13 -6 -38 -4 -55 2 -31 2 -44 2 -75 0 -7 0 -33 1 -58
0 -25 0 -49 -1 -55 -1 -5 -1 -28 -1 -50 1 -22 1 -49 1 -60 -2 -28 -1 -33 2
-93 2 -30 0 -56 -4 -58 -5 -3 -6 -10 -2 -15 3 -6 7 -152 8 -325 2 -249 5 -317
16 -324 15 -9 525 -10 540 0 6 4 10 252 11 683 0 372 4 677 7 678 4 1 24 2 45
3 56 3 58 8 61 136 1 95 -7 86 84 91 34 2 37 10 32 82 -1 15 2 28 7 28 8 2 43
3 211 10 46 2 90 8 98 14 8 6 17 26 19 44 2 19 6 36 8 38 8 8 50 12 137 14 84
2 90 3 91 23 1 32 1 425 0 473 -2 75 5 73 -324 72 -281 -2 -346 -8 -348 -32
-3 -57 -20 -86 -47 -83 -9 2 -31 0 -49 -4 l-31 -8 1 49 c0 27 -4 54 -11 61
-11 11 -85 26 -112 21z"/>
<path d="M9167 7423 c-1 -1 -66 -3 -145 -4 -78 -2 -147 -6 -152 -9 -6 -4 -11
-28 -12 -53 l-1 -47 -56 -1 c-86 -1 -154 -8 -164 -18 -5 -5 -9 -29 -9 -55 l0
-46 -54 0 -54 0 -1 -37 c-1 -21 -2 -46 -2 -55 0 -14 -8 -18 -41 -18 -22 0 -47
-4 -55 -9 -13 -9 -22 -45 -22 -93 0 -10 -12 -18 -36 -23 -65 -12 -71 -29 -77
-230 -2 -70 -6 -99 -14 -98 -7 2 -12 -1 -12 -5 0 -5 -14 -7 -30 -6 -22 1 -34
-4 -42 -19 -16 -29 -19 -744 -3 -757 10 -8 50 -17 85 -19 12 -1 15 -21 17
-114 3 -186 3 -192 12 -206 5 -8 25 -15 46 -16 43 -3 48 -7 52 -43 7 -71 10
-75 64 -78 50 -3 54 -6 55 -53 0 -50 10 -63 48 -61 66 4 66 4 66 -49 0 -46 15
-74 36 -70 5 1 25 1 45 0 34 -1 35 -2 36 -41 1 -63 11 -69 126 -72 l102 -3 3
-33 c4 -37 29 -58 82 -66 45 -7 615 -8 655 -1 38 7 55 30 55 72 l0 33 104 0
103 0 52 41 c28 22 51 45 51 50 0 5 29 22 63 39 35 16 64 36 65 42 1 7 4 29 7
48 9 57 13 303 4 326 -4 11 -13 21 -21 22 -47 3 -492 1 -533 -3 -60 -6 -94
-29 -111 -76 -7 -18 -13 -29 -14 -24 -7 48 -13 62 -31 78 -12 9 -33 18 -48 18
-14 1 -37 3 -51 4 -14 1 -91 4 -172 6 l-148 3 -1 31 c-1 16 -1 35 0 42 3 21
-39 41 -79 38 l-40 -3 0 53 c0 30 -4 56 -10 60 -5 3 -29 6 -54 7 l-44 1 -4 44
c-2 24 0 50 4 56 5 8 182 12 660 13 440 1 662 4 679 12 20 8 26 18 27 39 0 61
-1 60 48 60 53 0 63 11 65 68 2 61 1 562 -2 631 -1 56 -19 112 -33 107 -3 -2
-23 -3 -43 -3 l-38 0 -1 100 c0 55 -4 104 -10 110 -5 5 -27 12 -48 14 -48 7
-50 8 -53 58 -3 48 -14 58 -65 58 -23 0 -39 5 -40 13 0 6 -2 17 -3 22 -2 6 -3
19 -4 30 -2 36 -16 45 -76 50 -84 9 -142 36 -151 72 -4 15 -11 30 -15 34 -5 3
-64 6 -131 8 -184 4 -459 6 -461 4z m374 -590 c1 -35 10 -78 18 -85 4 -5 26
-9 49 -10 24 -1 45 -4 47 -8 2 -3 5 -42 6 -86 2 -101 10 -124 46 -125 25 -1
24 -2 -7 -8 -19 -4 -217 -6 -440 -6 l-405 0 2 49 c1 27 5 51 8 54 6 6 31 13
55 14 30 1 50 30 50 73 l0 43 42 0 c52 1 78 27 78 78 l0 34 225 0 c207 0 225
-1 226 -17z"/>
<path d="M11015 7424 c-5 -2 -78 -4 -162 -6 -84 -2 -155 -7 -159 -11 -4 -3 -7
-27 -7 -52 0 -43 -1 -45 -36 -55 -52 -15 -63 -24 -69 -61 -6 -43 -6 -1820 0
-2038 4 -110 9 -165 17 -170 17 -11 625 -11 642 -1 12 8 14 125 16 797 l3 787
25 3 c14 2 37 4 53 6 25 3 27 7 30 59 l3 55 42 0 c102 1 158 7 169 20 6 8 12
31 13 51 l3 37 171 3 c133 2 171 0 172 -10 2 -47 11 -83 22 -90 11 -7 58 -12
85 -9 8 1 12 -13 12 -42 0 -59 16 -77 68 -79 l42 -1 1 -61 c0 -34 2 -385 3
-781 2 -396 7 -742 11 -770 14 -93 16 -95 160 -92 138 2 150 7 160 67 3 19 7
35 8 37 2 1 51 3 110 4 122 2 114 -5 117 104 6 165 3 1825 -3 1870 -7 52 -25
74 -61 76 -12 1 -28 2 -36 3 -10 1 -15 13 -16 36 -3 86 1 80 -54 80 -27 0 -51
3 -51 8 -1 4 -2 23 -3 43 -2 48 -17 64 -63 67 -44 3 -46 5 -48 34 -3 44 -16
68 -38 69 -12 1 -33 3 -47 5 -31 5 -745 4 -780 0 -14 -2 -31 -4 -37 -5 -9 -1
-13 -18 -13 -51 l0 -50 -72 -1 c-40 0 -92 -2 -115 -5 -37 -5 -43 -3 -44 13 -1
32 -9 86 -13 91 -3 2 -46 6 -98 8 -51 3 -100 6 -108 8 -8 1 -19 2 -25 0z"/>
<path d="M15477 7423 c-4 -3 -23 -6 -44 -7 -34 -1 -39 -5 -49 -34 -11 -34 -19
-2283 -8 -2332 l6 -26 276 1 277 0 0 577 c0 318 4 578 8 578 4 0 4 8 -1 18 -9
19 -8 53 2 70 3 6 2 13 -2 16 -8 5 -9 29 -2 61 1 6 2 12 1 15 -1 3 -2 236 -3
519 -1 393 -5 516 -14 526 -9 9 -70 13 -220 14 -114 1 -211 4 -214 6 -4 3 -10
2 -13 -2z"/>
</g>
</svg>
